# xmcd
#
# Track frame offsets: 
#        150
#        17752
#        35715
#        54545
#        71107
#        87502
#        101797
#        116790
#        132582
#        150340
#        168547
#        184232
#        202027
#        214790
#        235912
#        249795
#
# Disc length: 3544 seconds
#
# Revision: 0
# Processed by: cddbd v1.5.2PL0 Copyright (c) Steve Scherf et al.
# Submitted via: ExactAudioCopy v0.99pb5
#
DISCID=eb0dd610
DTITLE=郭金發 - 典藏集二
DYEAR=1900
DGENRE=Country
TTITLE0=你是我的生命
TTITLE1=溫泉鄉的吉他
TTITLE2=流量天涯伴吉他
TTITLE3=七逃人的眼淚\
TTITLE4=希望咱有緣
TTITLE5=傷心的機場
TTITLE6=永遠心綿綿
TTITLE7=寂寞的小姑娘
TTITLE8=可憐的小姑娘
TTITLE9=失明的少女
TTITLE10=約會西門町
TTITLE11=望你早歸
TTITLE12=酒場情話
TTITLE13=為伊走千里
TTITLE14=感謝你的祝福
TTITLE15=夜半薩克斯風
EXTD=
EXTT0=
EXTT1=
EXTT2=
EXTT3=
EXTT4=
EXTT5=
EXTT6=
EXTT7=
EXTT8=
EXTT9=
EXTT10=
EXTT11=
EXTT12=
EXTT13=
EXTT14=
EXTT15=
PLAYORDER=
